<?xml version="1.0" standalone="no"?>
<!DOCTYPE svg PUBLIC "-//W3C//DTD SVG 20010904//EN"
 "http://www.w3.org/TR/2001/REC-SVG-20010904/DTD/svg10.dtd">
<svg version="1.0" xmlns="http://www.w3.org/2000/svg"
 width="700.000000pt" height="700.000000pt" viewBox="0 0 700.000000 700.000000"
 preserveAspectRatio="xMidYMid meet">
<metadata>
Created by potrace 1.14, written by Peter Selinger 2001-2017
</metadata>
<g transform="translate(0.000000,700.000000) scale(0.100000,-0.100000)"
fill="#000000" stroke="none">
<path d="M171 6718 c-55 -9 -124 -59 -147 -105 -18 -37 -19 -123 -21 -3104 -2
-2446 0 -3073 10 -3097 21 -51 58 -91 105 -114 l46 -22 3310 0 c1821 -1 3331
2 3356 7 60 10 112 48 144 106 l26 49 0 1828 c0 1309 -3 1840 -11 1869 -15 54
-82 120 -137 134 -102 28 -193 -14 -243 -111 -18 -36 -19 -83 -19 -1753 l0
-1715 -3090 0 -3090 0 2 2147 3 2148 310 1 c292 1 312 2 350 22 25 12 287 267
681 661 l641 641 360 0 360 0 -497 -497 c-274 -274 -505 -513 -515 -531 -36
-72 -19 -176 38 -232 69 -68 -136 -63 2393 -63 2174 -1 2293 0 2337 17 51 19
96 69 115 125 17 47 17 1383 1 1447 -14 53 -61 106 -116 130 -35 15 -298 16
-3350 18 -1821 0 -3330 -2 -3352 -6z m563 -439 c-24 -25 -304 -304 -319 -318
-3 -2 -5 75 -5 172 l0 177 177 0 177 0 -30 -31z m4279 -421 c-249 -249 -456
-455 -458 -457 -7 -6 -683 -7 -700 -1 -9 3 147 166 439 458 l453 452 360 0
360 0 -454 -452z m1577 -262 c0 -146 -3 -195 -12 -198 -11 -3 -351 -2 -382 1
-10 1 375 390 387 391 4 0 7 -87 7 -194z"/>
<path d="M3315 4670 c-100 -12 -170 -22 -176 -26 -3 -2 -21 -6 -40 -9 -109
-18 -274 -78 -423 -153 -463 -230 -810 -650 -950 -1149 -26 -92 -30 -109 -46
-208 -26 -162 -28 -424 -4 -550 2 -11 9 -47 15 -80 100 -572 511 -1092 1055
-1337 82 -37 264 -101 319 -112 69 -14 142 -27 170 -31 503 -74 1024 69 1420
388 157 127 338 338 435 507 143 250 207 449 245 764 25 204 -10 306 -119 351
-90 38 -196 7 -247 -73 -30 -47 -36 -75 -43 -212 -16 -275 -129 -567 -304
-790 -60 -75 -193 -203 -272 -262 -209 -154 -459 -251 -703 -273 -259 -24
-544 23 -747 124 -264 131 -451 295 -604 527 -71 110 -159 310 -182 415 -37
174 -42 220 -39 379 1 91 5 179 9 195 42 198 71 286 137 419 136 271 352 492
617 629 94 49 312 134 312 122 0 -3 10 -1 23 4 13 5 48 12 78 16 30 4 57 9 60
11 3 2 55 6 115 9 60 3 128 13 151 21 48 18 104 77 120 126 25 83 -11 180 -85
233 -41 28 -49 30 -140 31 -54 0 -124 -3 -157 -6z"/>
<path d="M2863 3921 c-44 -11 -96 -52 -125 -98 l-23 -38 0 -945 c0 -859 1
-948 16 -975 50 -90 139 -134 230 -114 20 5 105 48 190 97 207 120 978 565
1158 669 79 46 146 83 147 83 2 0 35 20 74 45 93 60 124 106 124 189 0 121
-27 146 -344 324 -25 14 -74 42 -109 64 -34 21 -65 38 -68 38 -3 0 -38 19 -77
43 -39 24 -78 46 -86 50 -8 4 -28 16 -45 26 -50 31 -878 507 -913 525 -40 21
-105 28 -149 17z"/>
</g>
</svg>
